# xmcd
#
# Track frame offsets:
# 150
# 16492
# 31086
# 45162
# 60244
# 74171
# 91421
# 107469
# 123033
# 136506
# 154509
# 164404
# 178154
# 194778
# 211149
# 229085
# 246317
# 261863
# 276001
# 287177
#
# Disc length: 4045 seconds
#
#
# Revision: 0
# Processed by: cddbd v1.5.1PL0 Copyright (c) Steve Scherf et al.
# Submitted via: FreeRIP 2.942 
#
DISCID=130fcb14
DTITLE=Gino and Geno and Teodoro and Sampaio - BAILÃO do Gino e Geno and teodoro and Sampaio 
DYEAR=2005
DGENRE=Sertanejas
TTITLE0=Ana Julia
TTITLE1=A Galera do Chapeu
TTITLE2=Namorada do Carinha
TTITLE3=Agita Ai
TTITLE4=Mulher Boa
TTITLE5=O Gavião
TTITLE6=Toco da Saia
TTITLE7=Cara Boa
TTITLE8=Só Tô Comendo
TTITLE9=A Mulher e a Bebida
TTITLE10=Silicone Lá
TTITLE11=Que Bicho Que É
TTITLE12=O Tocador
TTITLE13=Ela Chorou de Amor
TTITLE14=A Gostosona
TTITLE15=Mulher Que Não Dá Vôa
TTITLE16=Se a Casa Cair
TTITLE17=Cara de Boi
TTITLE18=O Garrafão
TTITLE19=Bate a Bota no Chão
EXTD=
EXTT0=Teodoro and Sampaio
EXTT1=Gino and Geno
EXTT2=Teodoro and Sampaio
EXTT3=Gino and Geno
EXTT4=Teodoro and Sampaio
EXTT5=Gino and Geno
EXTT6=Teodoro and Sampaio
EXTT7=Gino and Geno
EXTT8=Teodoro and Sampaio
EXTT9=Gino and Geno
EXTT10=Teodoro and Sampaio
EXTT11=Gino and Geno
EXTT12=Teodoro and Sampaio
EXTT13=Gino and Geno
EXTT14=Teodoro and Sampaio
EXTT15=Gino and Geno
EXTT16=Teodoro and Sampaio
EXTT17=Gino and Geno
EXTT18=Teodoro and Sampaio
EXTT19=Gino and Geno
PLAYORDER=
